<svg xmlns="http://www.w3.org/2000/svg" viewBox="0 0 24 24" width="48" height="48">
  <path d="M12 2C6.48 2 2 6.48 2 12s4.48 10 10 10 10-4.48 10-10S17.52 2 12 2z" fill="#4285F4"/>
  <path d="M17.3 12.2c0-.5-.04-.9-.13-1.3H12v2.5h3c-.14.7-.55 1.3-1.17 1.7v1.4h1.9c1.1-1 1.74-2.5 1.74-4.3z" fill="#fff"/>
  <path d="M12 17.5c1.6 0 2.9-.5 3.9-1.4l-1.9-1.4c-.5.4-1.2.6-2 .6-1.5 0-2.8-1-3.3-2.5H5.7v1.5C6.7 15.9 9.1 17.5 12 17.5z" fill="#fff"/>
  <path d="M8.7 12.8c-.2-.5-.3-1-.3-1.5s.1-1 .3-1.5V8.3H5.7c-.6 1.2-1 2.6-1 4s.3 2.8 1 4l1.5-1.1.5-.4z" fill="#fff"/>
  <path d="M12 7.2c.9 0 1.7.3 2.3.9l1.7-1.7c-1.1-1-2.5-1.6-4-1.6-2.9 0-5.3 1.6-6.3 3.9l1.5 1.2c.5-1.6 1.8-2.7 3.3-2.7z" fill="#fff"/>
</svg>
